<svg xmlns="http://www.w3.org/2000/svg" xmlns:xlink="http://www.w3.org/1999/xlink" width="150" zoomAndPan="magnify" viewBox="0 0 112.5 30.000001" height="40" preserveAspectRatio="xMidYMid meet" version="1.0"><defs><g/><clipPath id="f5c00f752f"><path d="M 17.171875 2.917969 L 41.957031 2.917969 L 41.957031 26.246094 L 17.171875 26.246094 Z M 17.171875 2.917969 " clip-rule="nonzero"/></clipPath></defs><g clip-path="url(#f5c00f752f)"><path fill="#000000" d="M 41.0625 9.324219 C 40.058594 5.453125 36.738281 2.957031 32.730469 2.953125 C 28.089844 2.953125 23.453125 2.953125 18.8125 2.953125 L 20.628906 6.152344 C 24.664062 6.144531 28.699219 6.144531 32.734375 6.148438 C 34.066406 6.148438 35.265625 6.539062 36.277344 7.425781 C 37.851562 8.800781 38.332031 10.585938 38.121094 12.59375 C 37.882812 14.914062 36.355469 16.863281 34.273438 17.363281 C 33.390625 17.574219 32.4375 17.492188 31.523438 17.582031 C 31.007812 17.636719 30.742188 17.421875 30.496094 16.992188 C 28.8125 14.027344 27.097656 11.078125 25.394531 8.128906 C 25.085938 7.589844 24.746094 7.585938 24.4375 8.113281 C 23.984375 8.894531 23.535156 9.675781 23.082031 10.457031 C 21.171875 13.765625 19.257812 17.070312 17.347656 20.378906 C 17.292969 20.480469 17.25 20.589844 17.171875 20.769531 L 17.691406 20.769531 C 21.277344 20.769531 24.867188 20.777344 28.453125 20.757812 C 28.714844 20.757812 28.894531 20.8125 29.042969 20.9375 C 29.136719 21.015625 29.214844 21.121094 29.292969 21.257812 C 30.230469 22.914062 31.1875 24.554688 32.128906 26.203125 L 35.839844 26.203125 C 35.398438 25.4375 34.972656 24.707031 34.554688 23.976562 C 33.953125 22.941406 33.359375 21.902344 32.765625 20.871094 C 32.835938 20.816406 32.859375 20.78125 32.886719 20.78125 C 32.992188 20.769531 33.101562 20.769531 33.210938 20.761719 C 34.851562 20.695312 36.339844 20.183594 37.6875 19.253906 C 41.019531 16.972656 41.957031 12.804688 41.0625 9.324219 Z M 22.695312 17.539062 C 23.433594 16.253906 24.152344 15.011719 24.910156 13.699219 C 25.335938 14.441406 25.746094 15.15625 26.164062 15.878906 C 26.480469 16.425781 26.796875 16.976562 27.121094 17.539062 Z M 22.695312 17.539062 " fill-opacity="1" fill-rule="nonzero"/></g><g fill="#000000" fill-opacity="1"><g transform="translate(46.414785, 11.888919)"><g><path d="M 7.921875 -0.59375 C 8.804688 0.613281 9.566406 1.414062 10.203125 1.8125 L 10.203125 1.859375 C 10.097656 1.898438 9.96875 1.929688 9.8125 1.953125 C 9.65625 1.972656 9.515625 1.984375 9.390625 1.984375 C 9.035156 1.984375 8.710938 1.925781 8.421875 1.8125 C 8.140625 1.695312 7.804688 1.492188 7.421875 1.203125 C 7.109375 0.953125 6.6875 0.566406 6.15625 0.046875 C 5.875 0.0859375 5.585938 0.109375 5.296875 0.109375 C 4.347656 0.109375 3.507812 -0.109375 2.78125 -0.546875 C 2.0625 -0.984375 1.503906 -1.566406 1.109375 -2.296875 C 0.722656 -3.023438 0.53125 -3.796875 0.53125 -4.609375 C 0.53125 -5.472656 0.742188 -6.265625 1.171875 -6.984375 C 1.597656 -7.710938 2.175781 -8.289062 2.90625 -8.71875 C 3.632812 -9.144531 4.445312 -9.359375 5.34375 -9.359375 C 6.21875 -9.359375 7.019531 -9.160156 7.75 -8.765625 C 8.488281 -8.367188 9.078125 -7.816406 9.515625 -7.109375 C 9.953125 -6.410156 10.171875 -5.601562 10.171875 -4.6875 C 10.171875 -3.789062 9.96875 -2.988281 9.5625 -2.28125 C 9.164062 -1.570312 8.617188 -1.007812 7.921875 -0.59375 Z M 2.015625 -4.921875 C 2.015625 -4.203125 2.160156 -3.53125 2.453125 -2.90625 C 2.753906 -2.289062 3.175781 -1.796875 3.71875 -1.421875 C 4.257812 -1.054688 4.875 -0.875 5.5625 -0.875 C 6.164062 -0.875 6.703125 -1.023438 7.171875 -1.328125 C 7.648438 -1.640625 8.019531 -2.0625 8.28125 -2.59375 C 8.550781 -3.125 8.6875 -3.707031 8.6875 -4.34375 C 8.6875 -5.0625 8.523438 -5.726562 8.203125 -6.34375 C 7.878906 -6.96875 7.441406 -7.460938 6.890625 -7.828125 C 6.335938 -8.191406 5.726562 -8.375 5.0625 -8.375 C 4.507812 -8.375 4 -8.226562 3.53125 -7.9375 C 3.070312 -7.65625 2.703125 -7.25 2.421875 -6.71875 C 2.148438 -6.195312 2.015625 -5.597656 2.015625 -4.921875 Z M 2.015625 -4.921875 "/></g></g></g><g fill="#000000" fill-opacity="1"><g transform="translate(57.121507, 11.888919)"><g><path d="M 3.75 0.078125 C 2.851562 0.078125 2.164062 -0.21875 1.6875 -0.8125 C 1.207031 -1.414062 0.96875 -2.296875 0.96875 -3.453125 L 0.96875 -6.59375 C 0.96875 -7.144531 0.9375 -7.617188 0.875 -8.015625 C 0.820312 -8.421875 0.734375 -8.828125 0.609375 -9.234375 L 2.671875 -9.234375 C 2.546875 -8.828125 2.453125 -8.421875 2.390625 -8.015625 C 2.335938 -7.617188 2.3125 -7.144531 2.3125 -6.59375 L 2.3125 -3.4375 C 2.3125 -2.644531 2.484375 -2.050781 2.828125 -1.65625 C 3.179688 -1.257812 3.664062 -1.0625 4.28125 -1.0625 C 4.644531 -1.0625 4.988281 -1.148438 5.3125 -1.328125 C 5.632812 -1.515625 5.894531 -1.769531 6.09375 -2.09375 C 6.289062 -2.414062 6.390625 -2.789062 6.390625 -3.21875 L 6.390625 -6.59375 C 6.390625 -7.144531 6.359375 -7.617188 6.296875 -8.015625 C 6.242188 -8.421875 6.15625 -8.828125 6.03125 -9.234375 L 8.09375 -9.234375 C 7.957031 -8.828125 7.863281 -8.421875 7.8125 -8.015625 C 7.757812 -7.617188 7.734375 -7.144531 7.734375 -6.59375 L 7.734375 -2.65625 C 7.734375 -2.09375 7.757812 -1.609375 7.8125 -1.203125 C 7.863281 -0.804688 7.957031 -0.40625 8.09375 0 L 6.34375 0 C 6.40625 -0.1875 6.4375 -0.492188 6.4375 -0.921875 C 5.488281 -0.253906 4.59375 0.078125 3.75 0.078125 Z M 3.75 0.078125 "/></g></g></g><g fill="#000000" fill-opacity="1"><g transform="translate(65.910266, 11.888919)"><g><path d="M 4.28125 -4.09375 C 4.675781 -3.4375 5.097656 -2.804688 5.546875 -2.203125 C 6.003906 -1.609375 6.582031 -0.890625 7.28125 -0.046875 L 7.28125 0 L 6.1875 0 C 5.851562 -0.125 5.414062 -0.492188 4.875 -1.109375 C 4.132812 -1.929688 3.3125 -2.972656 2.40625 -4.234375 L 2.40625 -2.65625 C 2.40625 -2.09375 2.429688 -1.609375 2.484375 -1.203125 C 2.546875 -0.804688 2.640625 -0.40625 2.765625 0 L 0.703125 0 C 0.828125 -0.40625 0.914062 -0.804688 0.96875 -1.203125 C 1.03125 -1.609375 1.0625 -2.09375 1.0625 -2.65625 L 1.0625 -6.59375 C 1.0625 -7.144531 1.03125 -7.617188 0.96875 -8.015625 C 0.914062 -8.421875 0.828125 -8.828125 0.703125 -9.234375 L 2.625 -9.234375 C 3.375 -9.234375 4.015625 -9.113281 4.546875 -8.875 C 5.085938 -8.644531 5.488281 -8.332031 5.75 -7.9375 C 6.019531 -7.539062 6.15625 -7.097656 6.15625 -6.609375 C 6.15625 -5.515625 5.53125 -4.675781 4.28125 -4.09375 Z M 2.40625 -4.390625 C 3.164062 -4.546875 3.742188 -4.800781 4.140625 -5.15625 C 4.546875 -5.519531 4.75 -5.945312 4.75 -6.4375 C 4.75 -6.84375 4.644531 -7.195312 4.4375 -7.5 C 4.226562 -7.800781 3.945312 -8.035156 3.59375 -8.203125 C 3.238281 -8.367188 2.84375 -8.453125 2.40625 -8.453125 Z M 2.40625 -4.390625 "/></g></g></g><g fill="#000000" fill-opacity="1"><g transform="translate(73.029273, 11.888919)"><g><path d="M 8.15625 -2.125 C 8.363281 -1.675781 8.5625 -1.300781 8.75 -1 C 8.9375 -0.695312 9.164062 -0.375 9.4375 -0.03125 L 9.4375 0 L 7.1875 0 C 7.207031 -0.0820312 7.21875 -0.179688 7.21875 -0.296875 C 7.21875 -0.503906 7.179688 -0.734375 7.109375 -0.984375 C 7.046875 -1.234375 6.925781 -1.546875 6.75 -1.921875 L 6.3125 -2.9375 L 2.859375 -2.9375 L 2.359375 -1.890625 C 2.046875 -1.234375 1.890625 -0.703125 1.890625 -0.296875 C 1.890625 -0.203125 1.894531 -0.101562 1.90625 0 L -0.296875 0 L -0.296875 -0.03125 C 0.117188 -0.539062 0.554688 -1.253906 1.015625 -2.171875 L 4.6875 -9.46875 L 4.734375 -9.46875 Z M 3.359375 -4 L 5.84375 -4 L 4.640625 -6.71875 Z M 3.359375 -4 "/></g></g></g><g fill="#000000" fill-opacity="1"><g transform="translate(82.156501, 11.888919)"><g><path d="M 9.0625 -3.015625 C 9.0625 -2.347656 9.078125 -1.78125 9.109375 -1.3125 C 9.148438 -0.851562 9.21875 -0.414062 9.3125 0 L 7.609375 0 C 7.492188 -0.332031 7.238281 -0.742188 6.84375 -1.234375 L 2.625 -6.578125 L 2.625 -3.015625 C 2.625 -2.335938 2.648438 -1.78125 2.703125 -1.34375 C 2.753906 -0.90625 2.847656 -0.457031 2.984375 0 L 0.921875 0 C 1.054688 -0.46875 1.148438 -0.921875 1.203125 -1.359375 C 1.253906 -1.796875 1.28125 -2.347656 1.28125 -3.015625 L 1.28125 -7.984375 C 1.09375 -8.234375 0.910156 -8.445312 0.734375 -8.625 C 0.566406 -8.800781 0.367188 -8.988281 0.140625 -9.1875 L 0.140625 -9.234375 L 2.421875 -9.234375 C 2.515625 -9.003906 2.628906 -8.773438 2.765625 -8.546875 C 2.910156 -8.328125 3.140625 -8.03125 3.453125 -7.65625 L 7.71875 -2.25 L 7.71875 -6.234375 C 7.71875 -6.898438 7.691406 -7.453125 7.640625 -7.890625 C 7.585938 -8.328125 7.492188 -8.773438 7.359375 -9.234375 L 9.421875 -9.234375 C 9.285156 -8.773438 9.191406 -8.328125 9.140625 -7.890625 C 9.085938 -7.460938 9.0625 -6.910156 9.0625 -6.234375 Z M 9.0625 -3.015625 "/></g></g></g><g fill="#000000" fill-opacity="1"><g transform="translate(53.77498, 24.674629)"><g><path d="M 4.28125 -4.09375 C 4.675781 -3.4375 5.097656 -2.804688 5.546875 -2.203125 C 6.003906 -1.609375 6.582031 -0.890625 7.28125 -0.046875 L 7.28125 0 L 6.1875 0 C 5.851562 -0.125 5.414062 -0.492188 4.875 -1.109375 C 4.132812 -1.929688 3.3125 -2.972656 2.40625 -4.234375 L 2.40625 -2.65625 C 2.40625 -2.09375 2.429688 -1.609375 2.484375 -1.203125 C 2.546875 -0.804688 2.640625 -0.40625 2.765625 0 L 0.703125 0 C 0.828125 -0.40625 0.914062 -0.804688 0.96875 -1.203125 C 1.03125 -1.609375 1.0625 -2.09375 1.0625 -2.65625 L 1.0625 -6.59375 C 1.0625 -7.144531 1.03125 -7.617188 0.96875 -8.015625 C 0.914062 -8.421875 0.828125 -8.828125 0.703125 -9.234375 L 2.625 -9.234375 C 3.375 -9.234375 4.015625 -9.113281 4.546875 -8.875 C 5.085938 -8.644531 5.488281 -8.332031 5.75 -7.9375 C 6.019531 -7.539062 6.15625 -7.097656 6.15625 -6.609375 C 6.15625 -5.515625 5.53125 -4.675781 4.28125 -4.09375 Z M 2.40625 -4.390625 C 3.164062 -4.546875 3.742188 -4.800781 4.140625 -5.15625 C 4.546875 -5.519531 4.75 -5.945312 4.75 -6.4375 C 4.75 -6.84375 4.644531 -7.195312 4.4375 -7.5 C 4.226562 -7.800781 3.945312 -8.035156 3.59375 -8.203125 C 3.238281 -8.367188 2.84375 -8.453125 2.40625 -8.453125 Z M 2.40625 -4.390625 "/></g></g></g><g fill="#000000" fill-opacity="1"><g transform="translate(60.893987, 24.674629)"><g><path d="M 0.703125 0 C 0.828125 -0.40625 0.914062 -0.804688 0.96875 -1.203125 C 1.03125 -1.609375 1.0625 -2.09375 1.0625 -2.65625 L 1.0625 -6.59375 C 1.0625 -7.144531 1.03125 -7.617188 0.96875 -8.015625 C 0.914062 -8.421875 0.828125 -8.828125 0.703125 -9.234375 L 5.703125 -9.234375 L 5.03125 -7.78125 C 4.3125 -8.144531 3.4375 -8.328125 2.40625 -8.328125 L 2.40625 -5.171875 L 5.375 -5.171875 L 4.578125 -3.828125 C 3.984375 -4.054688 3.257812 -4.191406 2.40625 -4.234375 L 2.40625 -0.90625 C 3.15625 -0.90625 3.832031 -0.953125 4.4375 -1.046875 C 5.039062 -1.148438 5.628906 -1.3125 6.203125 -1.53125 L 6.234375 -1.515625 L 5.578125 0 Z M 0.703125 0 "/></g></g></g><g fill="#000000" fill-opacity="1"><g transform="translate(67.132995, 24.674629)"><g><path d="M 8.15625 -2.125 C 8.363281 -1.675781 8.5625 -1.300781 8.75 -1 C 8.9375 -0.695312 9.164062 -0.375 9.4375 -0.03125 L 9.4375 0 L 7.1875 0 C 7.207031 -0.0820312 7.21875 -0.179688 7.21875 -0.296875 C 7.21875 -0.503906 7.179688 -0.734375 7.109375 -0.984375 C 7.046875 -1.234375 6.925781 -1.546875 6.75 -1.921875 L 6.3125 -2.9375 L 2.859375 -2.9375 L 2.359375 -1.890625 C 2.046875 -1.234375 1.890625 -0.703125 1.890625 -0.296875 C 1.890625 -0.203125 1.894531 -0.101562 1.90625 0 L -0.296875 0 L -0.296875 -0.03125 C 0.117188 -0.539062 0.554688 -1.253906 1.015625 -2.171875 L 4.6875 -9.46875 L 4.734375 -9.46875 Z M 3.359375 -4 L 5.84375 -4 L 4.640625 -6.71875 Z M 3.359375 -4 "/></g></g></g><g fill="#000000" fill-opacity="1"><g transform="translate(76.260222, 24.674629)"><g><path d="M 0.703125 0 C 0.828125 -0.40625 0.914062 -0.804688 0.96875 -1.203125 C 1.03125 -1.609375 1.0625 -2.09375 1.0625 -2.65625 L 1.0625 -6.59375 C 1.0625 -7.144531 1.03125 -7.617188 0.96875 -8.015625 C 0.90625 -8.410156 0.789062 -8.816406 0.625 -9.234375 C 1.1875 -9.285156 1.691406 -9.3125 2.140625 -9.3125 C 3.410156 -9.3125 4.492188 -9.117188 5.390625 -8.734375 C 6.285156 -8.347656 6.960938 -7.804688 7.421875 -7.109375 C 7.878906 -6.421875 8.109375 -5.613281 8.109375 -4.6875 C 8.109375 -3.71875 7.867188 -2.878906 7.390625 -2.171875 C 6.910156 -1.460938 6.25 -0.921875 5.40625 -0.546875 C 4.570312 -0.179688 3.628906 0 2.578125 0 Z M 2.5 -0.90625 C 3.738281 -0.96875 4.722656 -1.304688 5.453125 -1.921875 C 6.179688 -2.546875 6.546875 -3.429688 6.546875 -4.578125 C 6.546875 -5.316406 6.378906 -5.96875 6.046875 -6.53125 C 5.722656 -7.09375 5.253906 -7.535156 4.640625 -7.859375 C 4.023438 -8.179688 3.300781 -8.363281 2.46875 -8.40625 C 2.425781 -7.96875 2.40625 -7.414062 2.40625 -6.75 L 2.40625 -2.703125 C 2.40625 -1.972656 2.4375 -1.375 2.5 -0.90625 Z M 2.5 -0.90625 "/></g></g></g></svg>